<svg width="29" height="28" viewBox="0 0 29 28" fill="none" xmlns="http://www.w3.org/2000/svg"><rect x="1.002" y=".355" width="26.927" height="26.927" rx="13.464" stroke="#FAF8EF" stroke-width=".716"/><path fill-rule="evenodd" clip-rule="evenodd" d="M12.25 5.5c-1.924 0-3.401.382-4.385 1.365C6.882 7.85 6.5 9.325 6.5 11.25v4.5c0 1.924.382 3.401 1.365 4.385.984.983 2.46 1.365 4.385 1.365h4.5c1.924 0 3.401-.382 4.385-1.365.983-.984 1.365-2.46 1.365-4.385v-4.5c0-1.924-.382-3.401-1.365-4.385-.984-.983-2.46-1.365-4.385-1.365h-4.5zM7.5 11.25c0-1.826.368-2.974 1.072-3.678.704-.704 1.852-1.072 3.678-1.072h4.5c1.826 0 2.974.368 3.678 1.072.704.704 1.072 1.852 1.072 3.678v4.5c0 1.826-.368 2.974-1.072 3.678-.704.704-1.852 1.072-3.678 1.072h-4.5c-1.826 0-2.974-.368-3.678-1.072-.704-.704-1.072-1.852-1.072-3.678v-4.5zm9.625 2.25a2.625 2.625 0 11-5.25 0 2.625 2.625 0 015.25 0z" fill="#FAF8EF"/><path fill-rule="evenodd" clip-rule="evenodd" d="M18.727 9.75h.01-.01z" fill="#D9D9D9"/><path d="M18.727 9.75h.01" stroke="#FAF8EF" stroke-linecap="round" stroke-linejoin="round"/></svg>