<svg width="60" height="72" viewBox="0 0 60 72" fill="none" xmlns="http://www.w3.org/2000/svg"><path fill-rule="evenodd" clip-rule="evenodd" d="M0 30C0 13.431 13.431 0 30 0c16.569 0 30 13.431 30 30v42H0V30zm40.17-17l-.041.003c-.37 6.624-5.564 11.96-12.126 12.555a19.69 19.69 0 00-.003.11c6.77.612 12.083 6.27 12.15 13.183.07-7.323 6.028-13.237 13.368-13.237.161 0 .322.002.482.008v-.017c-.16.006-.321.008-.482.008-7.13 0-12.957-5.581-13.348-12.613zM22.862 32.038l.054-.003c.512 9.195 8.13 16.494 17.454 16.494.211 0 .421-.004.63-.011l.001.022c-.21-.007-.42-.01-.63-.01-9.599 0-17.39 7.734-17.482 17.31C22.802 56.8 15.853 49.4 7 48.6l.004-.143c8.582-.777 15.373-7.756 15.857-16.42z" fill="#FAF8EF"/></svg>